<?xml version="1.0" encoding="UTF-8"?>
<svg width="132px" height="51px" viewBox="0 0 132 51" version="1.1" xmlns="http://www.w3.org/2000/svg" xmlns:xlink="http://www.w3.org/1999/xlink">
    <!-- Generator: Sketch 51.3 (57544) - http://www.bohemiancoding.com/sketch -->
    <title>#1</title>
    <desc>Created with Sketch.</desc>
    <defs></defs>
    <g id="03-Starter-Templates" stroke="none" stroke-width="1" fill="none" fill-rule="evenodd">
        <g id="Template" transform="translate(-216.000000, -4494.000000)">
            <g id="Press-#1" transform="translate(0.000000, 4378.000000)">
                <g id="Atoms-/-Logo_press-/-Card" transform="translate(150.000000, 79.000000)">
                    <rect id="Rectangle-5" x="0" y="0" width="262" height="124"></rect>
                    <g id="Atoms-/-Logo-/-Press-/-#1" transform="translate(42.000000, 22.000000)" fill="#C2D1D9" fill-rule="evenodd" stroke-width="1">
                        <g id="Logo-#8" transform="translate(24.000000, 15.000000)">
                            <path d="M19.831078,49.6203661 L2.68132881,39.7189424 C1.02435254,38.7623186 0.00366101695,36.9943322 0.00366101695,35.0810847 L0.00366101695,15.2782373 C0.00366101695,13.3649492 1.02435254,11.5970034 2.68132881,10.640339 L19.831078,0.738955932 C21.4880542,-0.217708475 23.529478,-0.217708475 25.1864542,0.738955932 L42.3362034,10.640339 C43.993139,11.5970034 45.0138712,13.3649492 45.0138712,15.2782373 L45.0138712,35.0810847 C45.0138712,36.9943322 43.993139,38.7623186 42.3362034,39.7189424 L25.1864542,49.6203661 C23.529478,50.5770305 21.4880542,50.5770305 19.831078,49.6203661 Z M25.6995254,38.1401085 C23.263322,35.4443797 22.7663186,32.8982644 26.4641898,29.5565288 L26.4541831,29.5565288 C27.6511729,28.4768136 28.4080678,26.9185627 28.4080678,25.1796203 C28.4080678,23.4407186 27.6511729,21.8825085 26.4541831,20.8027932 L26.4641898,20.8027932 C22.766278,17.4609763 23.263322,14.9149424 25.6995254,12.2191729 L25.6928949,12.2191729 C26.384461,11.4560136 26.8093831,10.4467119 26.8093831,9.33567458 C26.8093831,6.96052881 24.8839322,5.03507797 22.5087458,5.03507797 C20.1336,5.03507797 18.2081492,6.96052881 18.2081492,9.33567458 C18.2081492,10.4467119 18.6330712,11.4560136 19.3245966,12.2191729 L19.3180068,12.2191729 C21.7542102,14.9149424 22.2512136,17.4609763 18.5533424,20.8027932 L18.5633492,20.8027932 C17.3663593,21.8825085 16.6094644,23.4407186 16.6094644,25.1796203 C16.6094644,26.9185627 17.3663593,28.4768136 18.5633492,29.5565288 L18.5533424,29.5565288 C22.2512136,32.8982644 21.7542102,35.4443797 19.3180068,38.1401085 L19.3245966,38.1401085 C18.6330712,38.9033085 18.2081492,39.9125695 18.2081492,41.0236068 C18.2081492,43.3987932 20.1336,45.3242441 22.5087458,45.3242441 C24.8839322,45.3242441 26.8093831,43.3987932 26.8093831,41.0236068 C26.8093831,39.9125695 26.384461,38.9033085 25.6928949,38.1401085 L25.6995254,38.1401085 Z M13.9008407,29.4714712 C12.6125695,28.0459525 11.8756881,26.6612746 12.0054915,25.179661 C11.8756881,23.6980475 12.6125695,22.3133695 13.9008407,20.8878508 L13.8942508,20.8878508 C14.5857763,20.1246508 15.0106983,19.1154305 15.0106983,18.0043932 C15.0106983,15.6292068 13.0852475,13.7037559 10.7101017,13.7037559 C8.33491525,13.7037559 6.40950508,15.6292068 6.40950508,18.0043932 C6.40950508,19.1154305 6.8344678,20.1246508 7.52595254,20.8878508 L7.51936271,20.8878508 C8.8076339,22.3133695 9.54451525,23.6980475 9.41471186,25.179661 C9.54451525,26.6612746 8.8076339,28.0459525 7.51936271,29.4714712 L7.52595254,29.4714712 C6.8344678,30.2346305 6.40950508,31.2438915 6.40950508,32.3549288 C6.40950508,34.7301153 8.33491525,36.6555661 10.7101017,36.6555661 C13.0852475,36.6555661 15.0106983,34.7301153 15.0106983,32.3549288 C15.0106983,31.2438915 14.5857763,30.2346305 13.8942508,29.4714712 L13.9008407,29.4714712 Z M37.4981288,29.4714712 C36.2098983,28.0459525 35.4730169,26.6612746 35.6028203,25.179661 C35.4730169,23.6980475 36.2098983,22.3133695 37.4981288,20.8878508 L37.491539,20.8878508 C38.1831051,20.1246508 38.6080271,19.1154305 38.6080271,18.0043932 C38.6080271,15.6292068 36.6825763,13.7037559 34.3074305,13.7037559 C31.9322441,13.7037559 30.0068339,15.6292068 30.0068339,18.0043932 C30.0068339,19.1154305 30.4317966,20.1246508 31.1232814,20.8878508 L31.1166915,20.8878508 C32.4049627,22.3133695 33.1418441,23.6980475 33.0120407,25.179661 C33.1418441,26.6612746 32.4049627,28.0459525 31.1166915,29.4714712 L31.1232814,29.4714712 C30.4317966,30.2346305 30.0068339,31.2438915 30.0068339,32.3549288 C30.0068339,34.7301153 31.9322441,36.6555661 34.3074305,36.6555661 C36.6825763,36.6555661 38.6080271,34.7301153 38.6080271,32.3549288 C38.6080271,31.2438915 38.1831051,30.2346305 37.491539,29.4714712 L37.4981288,29.4714712 Z" id="Combined-Shape"></path>
                            <path d="M59.4210305,15.8445153 L59.4210305,28.6331797 C59.4210305,29.477939 59.7495458,29.9707119 60.4300068,29.9707119 C60.8993085,29.9707119 61.3217085,29.8064542 61.7440678,29.5952949 L61.9083254,32.1999458 C61.345139,32.4345763 60.2892203,32.7396203 59.1394169,32.7396203 C57.3091525,32.7396203 56.1358373,31.8479593 56.1358373,29.4310373 L56.1358373,15.8445153 L59.4210305,15.8445153" id="Fill-7"></path>
                            <path d="M75.6822508,28.7270644 C75.6822508,29.4310373 75.8699797,29.9707119 76.5270102,29.9707119 C76.9963119,29.9707119 77.3717695,29.8064542 77.7706576,29.5952949 L77.9114441,32.1999458 C77.3013559,32.4815186 76.2923797,32.7396203 75.2363797,32.7396203 C73.8519458,32.7396203 72.9837559,32.1764746 72.6317288,30.9562983 C71.7870102,31.9418034 70.4260068,32.7161492 68.7364881,32.7161492 C65.3105492,32.7161492 62.9874305,30.0880678 62.9874305,26.4039864 C62.9874305,22.6729627 65.3105492,20.0213695 68.7364881,20.0213695 C70.332122,20.0213695 71.5758102,20.4672 72.3970983,21.2884881 L72.3970983,20.2325288 L75.6822508,20.2325288 L75.6822508,28.7270644 Z M72.3970983,23.9870237 C71.8339119,23.4003661 70.754522,22.884122 69.651661,22.884122 C67.6101559,22.884122 66.3195254,24.2920678 66.3195254,26.4039864 C66.3195254,28.468922 67.6335864,29.8768271 69.651661,29.8768271 C70.7310508,29.8768271 71.7400271,29.3840542 72.3970983,28.7739661 L72.3970983,23.9870237 Z" id="Fill-8"></path>
                            <path d="M86.8752814,32.7396203 C85.2092339,32.7396203 84.0124881,32.2234169 83.1911593,31.4021288 L83.1911593,32.5049898 L79.9060068,32.5049898 L79.9060068,15.8445153 L83.1911593,15.8445153 L83.1911593,21.2650169 C84.0359593,20.5141424 85.303078,20.0213695 86.8752814,20.0213695 C90.3246508,20.0213695 92.6477695,22.6494915 92.6477695,26.3570441 C92.6477695,30.0645966 90.3246508,32.7396203 86.8752814,32.7396203 Z M85.9601085,22.884122 C84.8572068,22.884122 83.8247186,23.4003661 83.1911593,24.0339254 L83.1911593,28.7505356 C83.7543458,29.3136814 84.8103051,29.8768271 85.9601085,29.8768271 C87.9781424,29.8768271 89.2922034,28.468922 89.2922034,26.3570441 C89.2922034,24.2685966 87.9781424,22.884122 85.9601085,22.884122 Z" id="Fill-9"></path>
                            <path d="M100.836936,19.9040542 C104.685315,19.9040542 107.454183,22.6729627 107.454183,26.4039864 C107.454183,30.0880678 104.685315,32.8335051 100.836936,32.8335051 C97.0355797,32.8335051 94.2666712,30.0880678 94.2666712,26.4039864 C94.2666712,22.6729627 97.0355797,19.9040542 100.836936,19.9040542 Z M100.836936,29.8299254 C102.901912,29.8299254 104.286386,28.3281356 104.286386,26.4039864 C104.286386,24.4328542 102.901912,22.9075932 100.836936,22.9075932 C98.8189424,22.9075932 97.4345085,24.4328542 97.4345085,26.4039864 C97.4345085,28.3281356 98.8189424,29.8299254 100.836936,29.8299254 Z" id="Fill-10"></path>
                            <path d="M110.809627,24.0339254 C110.809627,23.306522 110.645369,22.790278 109.964868,22.790278 C109.472095,22.790278 108.908949,23.0249492 108.72118,23.1422644 L108.580434,20.5610441 C108.744692,20.3967864 109.964868,20.0213695 111.255458,20.0213695 C112.663403,20.0213695 113.578576,20.5845559 113.930522,21.8751458 C114.51718,20.7253017 115.408881,20.0213695 117.004475,20.0213695 C118.154319,20.0213695 119.04602,20.4437288 119.210278,20.7253017 L118.740936,23.6819797 C118.553247,23.4238373 117.614603,23.0483797 116.488271,23.0483797 C114.916108,23.0483797 114.30598,24.4093831 114.09478,25.8408 L114.09478,32.5049898 L110.809627,32.5049898 L110.809627,24.0339254" id="Fill-11"></path>
                            <path d="M131.881546,31.1674576 C130.614427,32.1999458 128.807593,32.8335051 126.719146,32.8335051 C122.096461,32.8335051 120.031485,30.0176542 120.031485,26.4039864 C120.031485,22.7433356 122.565763,19.9040542 126.507946,19.9040542 C130.238969,19.9040542 131.998902,22.1801898 131.998902,25.0194712 C131.998902,25.7703864 131.881546,26.943661 131.740759,27.4129627 L123.410522,27.4129627 C123.715566,29.1259932 124.818427,30.0880678 126.81299,30.0880678 C128.361763,30.0880678 129.793139,29.4545085 130.637898,28.8209492 L131.881546,31.1674576 Z M128.854495,24.4563254 C128.854495,23.4707797 128.10362,22.6260203 126.437573,22.6260203 C124.677641,22.6260203 123.739037,23.6819797 123.504366,24.8786847 L128.831064,24.8786847 C128.854495,24.7613695 128.854495,24.5736814 128.854495,24.4563254 Z" id="Fill-12"></path>
                        </g>
                    </g>
                </g>
            </g>
        </g>
    </g>
</svg>